# xmcd
#
# Track frame offsets:
#	150
#	12575
#	24896
#	40419
#	51970
#	66717
#	78971
#	91763
#	104245
#	117536
#	131067
#	144926
#	158864
#	170945
#	182970
#	196239
#	207914
#	221296
#	234779
#	247336
#	259010
#	273706
#	285970
#	299228
#	312612
#	325674
#	337909
#
# Disc length: 4680 seconds
#
# Revision: 0
# Processed by: cddbd v1.5.2PL0 Copyright (c) Steve Scherf et al.
# Submitted via: EasyCDDAExtractor 10.0.1.1
#
DISCID=a912461b
DTITLE=Red River Dave - Red River Dave - The Yodelling Cowboy Sings Amelia Ear
DTITLE=hart's Last Flight
DYEAR=1900
DGENRE=Classie Country
TTITLE0=Back In The Saddle Again
TTITLE1=Amelia Earhart's Last Flight
TTITLE2=Letter Edged In Black
TTITLE3=What Is Life Without Love?
TTITLE4=Empty Sadles
TTITLE5=Don't Call My Name
TTITLE6=You'll Always Be My Sweetheart
TTITLE7=Ole Faithful
TTITLE8=Time Will Tell The Story
TTITLE9=Home On The Range
TTITLE10=Her Name Was Rosita
TTITLE11=The Last Roundup
TTITLE12=Wagon Trail
TTITLE13=She'll Be Coming Round The Mountain
TTITLE14=White Cross On The Hillside
TTITLE15=I've Nobody To Love
TTITLE16=Little Red Caboose Behind The train
TTITLE17=Living A Lie Over You
TTITLE18=Teardrops In my Heart
TTITLE19=Why Should I Feel Sorry For You Now?
TTITLE20=Twenty-One Years
TTITLE21=Two Sides To Every Story
TTITLE22=Yellow Rose Of Texas
TTITLE23=The Convict And The Rose
TTITLE24=I'm A Married Man
TTITLE25=Little Dogie Stray
TTITLE26=Searching For You Buddy
EXTD=
EXTT0=
EXTT1=
EXTT2=
EXTT3=
EXTT4=
EXTT5=
EXTT6=
EXTT7=
EXTT8=
EXTT9=
EXTT10=
EXTT11=
EXTT12=
EXTT13=
EXTT14=
EXTT15=
EXTT16=
EXTT17=
EXTT18=
EXTT19=
EXTT20=
EXTT21=
EXTT22=
EXTT23=
EXTT24=
EXTT25=
EXTT26=
PLAYORDER=
